{"title":"Super.8.2011.CAM.x264.Feel-Free","uid":6469280,"size":1250417558,"categoryP":"video","categoryS":"movies","magnet":"?xt=urn:btih:31614ebf9b30da22697773ff377d94204cd493c1&amp;dn=Super.8.2011.CAM.x264.Feel-Free&amp;tr=udp%3A%2F%2Ftracker.openbittorrent.com%3A80&amp;tr=udp%3A%2F%2Fopen.demonii.com%3A1337&amp;tr=udp%3A%2F%2Ftracker.coppersurfer.tk%3A6969&amp;tr=udp%3A%2F%2Fexodus.desync.com%3A6969","seeders":0,"leechers":1,"uploader":"hiest","files":-1,"time":1308064221,"description":" Full Credits To Feel Free :)\n ######## ######## ######## ##          ######## ########  ######## ######## \n ##       ##       ##       ##          ##       ##     ## ##       ##       \n ##       ##       ##       ##          ##       ##     ## ##       ##       \n ######   ######   ######   ##          ######   ########  ######   ######   \n ##       ##       ##       ##          ##       ##   ##   ##       ##       \n ##       ##       ##       ##          ##       ##    ##  ##       ##       \n ##       ######## ######## ########    ##       ##     ## ######## ######## \n\n Genre:Mystery | Sci-Fi | Thriller \n Language:English\n &lt;a href=&quot; http://www.imdb.com/title/tt1650062/&quot; rel=&quot;nofollow&quot; target=&quot;_NEW&quot;&gt; http://www.imdb.com/title/tt1650062/&lt;/a&gt;\n Source:EP1C Thanks!\n\n Format : MPEG-4\n Format profile : Base Media\n Codec ID : isom\n File size : 1.16 GiB\n Duration : 1h 40mn\n Overall bit rate : 1 650 Kbps\n\n Video\n ID : 1\n Format : AVC\n Format/Info : Advanced Video Codec\n Format profile : &lt;a class=&quot;__cf_email__&quot; href=&quot;/cdn-cgi/l/email-protection&quot; data-cfemail=&quot;93dbfaf4fbd3dfa7bda2&quot;&gt;[email&amp;#160;protected]&lt;/a&gt;&lt;script cf-hash='f9e31' type=&quot;text/javascript&quot;&gt;\n/* &lt;![CDATA[ */!function(){try{var t=&quot;currentScript&quot;in document?document.currentScript:function(){for(var t=document.getElementsByTagName(&quot;script&quot;),e=t.length;e--;)if(t[e].getAttribute(&quot;cf-hash&quot;))return t[e]}();if(t&amp;&amp;t.previousSibling){var e,r,n,i,c=t.previousSibling,a=c.getAttribute(&quot;data-cfemail&quot;);if(a){for(e=&quot;&quot;,r=parseInt(a.substr(0,2),16),n=2;a.length-n;n+=2)i=parseInt(a.substr(n,2),16)^r,e+=String.fromCharCode(i);e=document.createTextNode(e),c.parentNode.replaceChild(e,c)}}}catch(u){}}();/* ]]&gt; */&lt;/script&gt;\n Format settings, CABAC : Yes\n Format settings, ReFrames : 3 frames\n Codec ID : avc1\n Codec ID/Info : Advanced Video Coding\n Duration : 1h 40mn\n Bit rate mode : Variable\n Bit rate : 1 425 Kbps\n Maximum bit rate : 6 365 Kbps\n Width : 720 pixels\n Height : 288 pixels\n Display aspect ratio : 2.500\n Frame rate mode : Constant\n Frame rate : 24.000 fps\n Color space : YUV\n Chroma subsampling : 4:2:0\n Bit depth : 8 bits\n Scan type : Progressive\n Bits/(Pixel*Frame) : 0.286\n Stream size : 1.00 GiB (86%)\n Writing library : x264\n\n Audio\n ID : 2\n Format : AAC\n Format/Info : Advanced Audio Codec\n Format version : Version 4\n Format profile : LC\n Format settings, SBR : No\n Codec ID : 40\n Duration : 1h 40mn\n Bit rate mode : Variable\n Bit rate : 224 Kbps\n Maximum bit rate : 261 Kbps\n Channel(s) : 2 channels\n Channel positions : Front: L R\n Sampling rate : 44.1 KHz\n Stream size : 162 MiB (14%)\n\n\n Plot:\n After witnessing a mysterious train crash, a group of friends in the summer \n of  1979 begin noticing strange happenings going around in their small town, \n and begin to investigate into the creepy phenomenon.\n\n\n\n\n\n\n ==================================\n &lt;a href=&quot; http://thepiratebay.se/user/hiest&quot; rel=&quot;nofollow&quot; target=&quot;_NEW&quot;&gt; http://thepiratebay.se/user/hiest&lt;/a&gt;\n ==================================\n\n\n\n\n\n\n Screen Shots:\n\n &lt;a href=&quot; http://leetleech.org/images/98560799680796672313.png&quot; rel=&quot;nofollow&quot; target=&quot;_NEW&quot;&gt; http://leetleech.org/images/98560799680796672313.png&lt;/a&gt;\n\n &lt;a href=&quot; http://leetleech.org/images/73126559030222761669.png&quot; rel=&quot;nofollow&quot; target=&quot;_NEW&quot;&gt; http://leetleech.org/images/73126559030222761669.png&lt;/a&gt;\n\n &lt;a href=&quot; http://leetleech.org/images/73881440501853784884.png&quot; rel=&quot;nofollow&quot; target=&quot;_NEW&quot;&gt; http://leetleech.org/images/73881440501853784884.png&lt;/a&gt;\n\n &lt;a href=&quot; http://leetleech.org/images/42222020555616908823.png&quot; rel=&quot;nofollow&quot; target=&quot;_NEW&quot;&gt; http://leetleech.org/images/42222020555616908823.png&lt;/a&gt;\n\n &lt;a href=&quot; http://leetleech.org/images/59871064998073545547.png&quot; rel=&quot;nofollow&quot; target=&quot;_NEW&quot;&gt; http://leetleech.org/images/59871064998073545547.png&lt;/a&gt;\n\n &lt;a href=&quot; http://leetleech.org/images/64598717620141141943.png&quot; rel=&quot;nofollow&quot; target=&quot;_NEW&quot;&gt; http://leetleech.org/images/64598717620141141943.png&lt;/a&gt;\n\n Full Credits To Feel Free :)\n ######## ######## ######## ##          ######## ########  ######## ######## \n ##       ##       ##       ##          ##       ##     ## ##       ##       \n ##       ##       ##       ##          ##       ##     ## ##       ##       \n ######   ######   ######   ##          ######   ########  ######   ######   \n ##       ##       ##       ##          ##       ##   ##   ##       ##       \n ##       ##       ##       ##          ##       ##    ##  ##       ##       \n ##       ######## ######## ########    ##       ##     ## ######## ######## \n","torrent":{"xt":"urn:btih:31614ebf9b30da22697773ff377d94204cd493c1","amp;dn":"Super.8.2011.CAM.x264.Feel-Free","amp;tr":["udp%3A%2F%2Ftracker.openbittorrent.com%3A80","udp%3A%2F%2Fopen.demonii.com%3A1337","udp%3A%2F%2Ftracker.coppersurfer.tk%3A6969","udp%3A%2F%2Fexodus.desync.com%3A6969"],"infoHash":"31614ebf9b30da22697773ff377d94204cd493c1","infoHashBuffer":{"type":"Buffer","data":[49,97,78,191,155,48,218,34,105,119,115,255,55,125,148,32,76,212,147,193]},"announce":[],"urlList":[]}}